# xmcd
#
# Track frame offsets:
#	150
#	15736
#	31856
#	51258
#	64756
#	85086
#	99452
#	125366
#	142765
#	171194
#	186132
#	206855
#
# Disc length: 3002 seconds
#
# Revision: 1
# Processed by: cddbd v1.5.1PL0 Copyright (c) Steve Scherf et al.
# Submitted via: CDex 1.50Beta5
#
DISCID=9d0bb80c
DTITLE=雪幻 - Colors
DYEAR=1900
DGENRE=Soundtrack
TTITLE0=days
TTITLE1=Tiresome Snow
TTITLE2=King-Kong-Jack-Song
TTITLE3=優しさの雨に抱かれて
TTITLE4=Blue Moon
TTITLE5=passion
TTITLE6=黄昏ゆく街
TTITLE7=When I Wish Upon a Star
TTITLE8=Double Flapper
TTITLE9=Innocent Snow
TTITLE10=雪花
TTITLE11=恋愛SHU!(EXTRA TRACK)
EXTD=
EXTT0=
EXTT1=
EXTT2=
EXTT3=
EXTT4=
EXTT5=
EXTT6=
EXTT7=
EXTT8=
EXTT9=
EXTT10=
EXTT11=
PLAYORDER=
